<?xml version="1.0" encoding="utf-8"?>
<!-- Generator: Adobe Illustrator 23.0.3, SVG Export Plug-In . SVG Version: 6.00 Build 0)  -->
<svg version="1.1" id="Layer_1" xmlns="http://www.w3.org/2000/svg" xmlns:xlink="http://www.w3.org/1999/xlink" x="0px" y="0px"
	 viewBox="0 0 1920 1080" style="enable-background:new 0 0 1920 1080;" xml:space="preserve">
<style type="text/css">
	.st0{fill:#ACDCFF;stroke:#FFFFFF;stroke-width:16;stroke-linejoin:round;stroke-miterlimit:10;}
	.st1{fill:#ACDCFF;}
	.st2{fill:#FFFFFF;}
</style>
<polygon class="st0" points="582.5,416.5 582.5,593.5 728.5,640.5 728.5,456.5 "/>
<polygon class="st0" points="613,574 728,640 728,456 613,404 "/>
<polygon class="st0" points="874.5,416.5 874.5,593.5 728.5,640.5 728.5,456.5 "/>
<polygon class="st0" points="844,574 729,640 729,456 844,404 "/>
<polygon class="st1" points="750,611 737.38,597 728,611 719.5,597 699,611 699,514 719.5,514 728,528 737.63,514 750,514 "/>
<g>
	<path class="st2" d="M728.21,596.57c0,0-4.83-16.66-13.21-30.57c-9.33-15.49-11.75-17.07-26.09-25.09L690,510
		c3.45,1.93,14.95,6.71,25,17c4.99,5.1,9,13,12.7,19.78c6.21-9.19,14.69-21.42,23.92-33.77C786.77,465.98,807,447,818,444l-7,39
		c0.62,0-5,3-40,45C752.94,549.67,728.21,596.57,728.21,596.57z"/>
</g>
</svg>
