<?xml version="1.0" encoding="utf-8"?>
<!-- Generator: Adobe Illustrator 23.0.3, SVG Export Plug-In . SVG Version: 6.00 Build 0)  -->
<svg version="1.1" id="Layer_1" xmlns="http://www.w3.org/2000/svg" xmlns:xlink="http://www.w3.org/1999/xlink" x="0px" y="0px"
	 viewBox="0 0 305 249.5" style="enable-background:new 0 0 305 249.5;" xml:space="preserve">
<style type="text/css">
	.st0{fill:#FFFFFF;}
</style>
<path class="st0" d="M151.49,249.42c0.33,0.05,0.67,0.08,1.01,0.08c0,0,0,0,0,0C152.16,249.5,151.83,249.47,151.49,249.42z
	 M153.78,249.36c-0.09,0.02-0.18,0.05-0.27,0.07C153.6,249.41,153.69,249.37,153.78,249.36z M148.03,247.72L123.6,233.7L6.5,196V19
	l24,6.58v-6.74l-22.28-6.1c-1.96-0.54-4.05-0.13-5.66,1.1S0,16.97,0,19v177c0,2.82,1.82,5.32,4.51,6.19l146,47
	c0.18,0.06,0.36,0.09,0.54,0.13c-0.84-0.19-1.65-0.54-2.37-1.06C148.45,248.09,148.24,247.91,148.03,247.72z M13,191.26V27.52
	l17.5,4.79v-6.74L6.5,19v177l117.1,37.7l-27.1-15.55L13,191.26z M37,6.5l79.22,35.82l35.36,9.69l0.92-0.42L39.68,0.58
	c-2.01-0.91-4.35-0.74-6.2,0.46S30.5,4.29,30.5,6.5v12.34l6.5,1.78V6.5z M37,34.1l-6.5-1.78V176.5c0,2.33,1.25,4.48,3.26,5.64
	l62.74,36.01l29.74,9.57L37,176.5V34.1z M37,27.36v-6.74l-6.5-1.78v6.74L37,27.36z M148.13,54.2c0.6-0.68,1.34-1.24,2.19-1.62
	l1.26-0.57l-35.36-9.69L146.7,56.1C147.05,55.38,147.54,54.74,148.13,54.2z M146,240.91l-22.4-7.21l24.43,14.02
	c-1.29-1.22-2.03-2.92-2.03-4.72V240.91z M146,239.06l-19.75-11.34l-29.74-9.57l27.1,15.55l22.4,7.21V239.06z M37,34.1v-6.74
	l-6.5-1.78v6.74L37,34.1z M43.5,16.57l32.69,14.78l40.03,10.97L37,6.5v14.12l6.5,1.78V16.57z M146,203.62l-0.5-0.82v28.48
	l-102-58.54V35.88L37,34.1v142.4l89.25,51.22l19.75,6.36V203.62z M146,63.96l-0.5-0.14v55.97l0.5,0.82V63.96z M43.5,22.4L37,20.62
	v6.74l6.5,1.78V22.4z M114.01,48.45l32.24,8.83c0.11-0.41,0.26-0.81,0.45-1.19l-30.48-13.78L76.19,31.35L114.01,48.45z
	 M126.25,227.72L146,239.06v-4.98L126.25,227.72z M145.5,63.82l0.5,0.14V59c0-0.59,0.1-1.16,0.25-1.71l-32.24-8.83l31.49,14.24
	V63.82z M43.5,35.88v-6.74L37,27.36v6.74L43.5,35.88z M152.5,249.5c0.34,0,0.68-0.03,1.01-0.08
	C153.17,249.47,152.84,249.5,152.5,249.5C152.5,249.5,152.5,249.5,152.5,249.5z M302.44,13.83c-1.61-1.23-3.7-1.64-5.66-1.1
	l-22.28,6.1v6.74l24-6.58v177l-117.1,37.7l-24.43,14.02c-0.2,0.19-0.41,0.37-0.64,0.53c-0.77,0.56-1.64,0.92-2.54,1.1
	c0.24-0.05,0.47-0.09,0.71-0.17l146-47c2.69-0.87,4.51-3.37,4.51-6.19V19C305,16.97,304.05,15.06,302.44,13.83z M151.49,249.42
	c-0.15-0.02-0.3-0.07-0.45-0.11C151.19,249.35,151.34,249.4,151.49,249.42z M156.97,247.72l-0.73,0.42c-1,0.58-2.12,0.86-3.24,0.86
	c-0.17,0-0.33-0.02-0.5-0.03c-0.17,0.01-0.33,0.03-0.5,0.03c-1.12,0-2.23-0.29-3.24-0.86l-0.73-0.42c0.2,0.19,0.41,0.37,0.64,0.53
	c0.72,0.52,1.53,0.87,2.37,1.06c0.15,0.03,0.3,0.08,0.45,0.11c0.33,0.05,0.67,0.08,1.01,0.08c0.34,0,0.68-0.03,1.01-0.08
	c0.09-0.01,0.18-0.05,0.27-0.07c0.9-0.18,1.78-0.54,2.54-1.1C156.55,248.09,156.76,247.91,156.97,247.72z M146.5,242.5v-1.43
	l-0.5-0.16V243c0,1.8,0.75,3.5,2.03,4.72l0.73,0.42c1,0.58,2.12,0.86,3.24,0.86c0.17,0,0.33-0.02,0.5-0.03
	c-0.96-0.07-1.9-0.35-2.76-0.84C147.74,246.96,146.5,244.82,146.5,242.5z M148.13,54.2c-0.59,0.54-1.08,1.18-1.43,1.9l0.24,0.11
	C147.21,55.47,147.61,54.79,148.13,54.2z M146,239.06v1.85l0.5,0.16v-1.72L146,239.06z M146.93,56.21l-0.24-0.11
	c-0.19,0.38-0.33,0.77-0.45,1.19l0.36,0.1C146.68,56.98,146.79,56.59,146.93,56.21z M146,63.96v56.66l0.5,0.82V58.5
	c0-0.38,0.04-0.75,0.11-1.11l-0.36-0.1C146.1,57.84,146,58.41,146,59V63.96z M146.5,204.44l-0.5-0.82v30.46v4.98l0.5,0.29V204.44z
	 M292,27.52v163.74l-83.51,26.88l-27.1,15.55L298.5,196V19l-24,6.58v6.74L292,27.52z M188.78,42.32L268,6.5v14.12l6.5-1.78V6.5
	c0-2.21-1.12-4.26-2.98-5.46c-1.85-1.2-4.19-1.37-6.2-0.46L152.5,51.59l0.92,0.42L188.78,42.32z M152.5,52.26l0.92-0.25l-0.92-0.42
	l-0.92,0.42L152.5,52.26z M148.13,54.2c0.74-0.67,1.64-1.19,2.65-1.47l1.72-0.47l-0.92-0.25l-1.26,0.57
	C149.47,52.96,148.73,53.52,148.13,54.2z M178.75,227.72l29.74-9.57l62.74-36.01c2.02-1.16,3.26-3.31,3.26-5.64V32.31L268,34.1
	v142.4L178.75,227.72z M268,27.36l6.5-1.78v-6.74l-6.5,1.78V27.36z M159,243c0,1.8-0.75,3.5-2.03,4.72l24.43-14.02l-22.4,7.21V243z
	 M156.87,54.2c0.59,0.54,1.08,1.18,1.43,1.9l30.48-13.78l-35.36,9.69l1.26,0.57C155.53,52.96,156.27,53.52,156.87,54.2z
	 M156.87,54.2c0.52,0.59,0.92,1.27,1.2,2.01l0.24-0.11C157.95,55.38,157.46,54.74,156.87,54.2z M159,240.91l-0.5,0.16v1.43
	c0,2.32-1.24,4.46-3.24,5.62c-0.86,0.5-1.8,0.77-2.76,0.84c0.17,0.01,0.33,0.03,0.5,0.03c1.12,0,2.23-0.29,3.24-0.86l0.73-0.42
	c1.29-1.22,2.03-2.92,2.03-4.72V240.91z M156.87,54.2c-0.6-0.68-1.34-1.24-2.19-1.62l-1.26-0.57l-0.92,0.25l1.72,0.47
	C155.23,53.01,156.13,53.53,156.87,54.2z M158.5,242.5v-1.43l-6,1.93l-6-1.93v1.43c0,2.32,1.24,4.46,3.24,5.62
	c0.86,0.5,1.8,0.77,2.76,0.84c0.96-0.07,1.9-0.35,2.76-0.84C157.26,246.96,158.5,244.82,158.5,242.5z M148.13,54.2
	c-0.52,0.59-0.92,1.27-1.2,2.01L152,58.5v0.36l0.5,0.14l0.5-0.14V58.5l5.07-2.29c-0.28-0.74-0.68-1.42-1.2-2.01
	c-0.74-0.67-1.64-1.19-2.65-1.47l-1.72-0.47l-1.72,0.47C149.77,53.01,148.87,53.53,148.13,54.2z M152,213.5v29l-5.5-3.16v1.72
	l6,1.93v-30.25L152,213.5z M152.5,129.77V59l-0.5-0.14v71.64L152.5,129.77z M152,58.86V58.5l-5.07-2.29
	c-0.14,0.38-0.26,0.77-0.33,1.18L152,58.86z M146.5,239.34l5.5,3.16v-29l-5.5-9.06V239.34z M146.5,58.5v62.94l5.5,9.06V58.86
	l-5.39-1.48C146.54,57.75,146.5,58.12,146.5,58.5z M268,34.1l6.5-1.78v-6.74l-6.5,1.78V34.1z M178.75,227.72L159,239.06v1.85
	l22.4-7.21l27.1-15.55L178.75,227.72z M158.5,241.07l0.5-0.16v-1.85l-0.5,0.29V241.07z M153,242.5v-30.49l-0.5,0.75V243l6-1.93
	v-1.72L153,242.5z M153,129.05V58.86L152.5,59v70.77L153,129.05z M261.5,16.57v5.82l6.5-1.78V6.5l-79.22,35.82l40.03-10.97
	L261.5,16.57z M261.5,172.74l-102,58.54v-28.96l-0.5,0.75v31.02l19.75-6.36L268,176.5V34.1l-6.5,1.78V172.74z M159.5,63.82
	l-0.5,0.14v56.37l0.5-0.73V63.82z M158.75,57.29l32.24-8.83l37.82-17.1l-40.03,10.97L158.3,56.1
	C158.49,56.48,158.64,56.88,158.75,57.29z M261.5,29.14l6.5-1.78v-6.74l-6.5,1.78V29.14z M158.75,57.29
	c-0.11-0.41-0.26-0.81-0.45-1.19l-0.24,0.11c0.14,0.38,0.26,0.77,0.33,1.18L158.75,57.29z M158.07,56.21L153,58.5v0.36l5.39-1.48
	C158.32,56.98,158.21,56.59,158.07,56.21z M261.5,35.88l6.5-1.78v-6.74l-6.5,1.78V35.88z M159,63.96l0.5-0.14v-1.13l31.49-14.24
	l-32.24,8.83C158.9,57.84,159,58.41,159,59V63.96z M159,239.06l19.75-11.34L159,234.08V239.06z M159,203.06l-0.5,0.75v35.54
	l0.5-0.29v-4.98V203.06z M158.5,58.5v62.55l0.5-0.73V63.96V59c0-0.59-0.1-1.16-0.25-1.71l-0.36,0.1
	C158.46,57.75,158.5,58.12,158.5,58.5z M153,242.5l5.5-3.16V203.8l-5.5,8.2V242.5z M158.5,121.05V58.5c0-0.38-0.04-0.75-0.11-1.11
	L153,58.86v70.18L158.5,121.05z M114,112.5l-1.09,30.91c4.25,2.37,7.45,4.18,10.09,5.96v-32.1C118.91,114.9,115.59,113.39,114,112.5
	z M195,130.5c35-42,40.62-45,40-45l7-39c-11,3-31.23,21.98-66.39,69.02c-0.54,0.72-1.08,1.45-1.61,2.17v43.26
	C180.87,149.78,188.38,138.44,195,130.5z M139,168.5c2.49,4.14,4.67,8.52,6.5,12.63v-42.91c-2-3.26-4.14-6.3-6.5-8.72
	c-5.41-5.54-11.23-9.47-16-12.23v32.1C129.29,153.59,132.43,157.6,139,168.5z M145.5,138.22v42.91c0.17,0.38,0.34,0.76,0.5,1.14
	v-43.22C145.83,138.77,145.67,138.5,145.5,138.22z M146,139.04v43.22c0.17,0.39,0.34,0.78,0.5,1.16v-43.54
	C146.33,139.6,146.17,139.32,146,139.04z M159.5,185.73c3.88-6.93,8.98-15.8,14.5-24.79v-43.26c-5.2,7.01-10.12,13.93-14.5,20.21
	V185.73z M152,148.83v49.53c0.14,0.45,0.21,0.7,0.21,0.7s0.1-0.19,0.29-0.54v-50.43C152.33,148.34,152.16,148.59,152,148.83z
	 M151.7,149.28c-1.65-3.03-3.36-6.27-5.2-9.4v43.54c3,7.06,4.9,12.97,5.5,14.94v-49.53C151.9,148.98,151.8,149.14,151.7,149.28z
	 M152.5,148.09v50.43c0.13-0.24,0.3-0.55,0.5-0.94v-50.23C152.83,147.61,152.67,147.85,152.5,148.09z M159,138.62v48.01
	c0.16-0.29,0.33-0.59,0.5-0.89V137.9C159.33,138.14,159.17,138.38,159,138.62z M158.5,139.34v48.19c0.16-0.29,0.33-0.59,0.5-0.9
	v-48.01C158.83,138.86,158.67,139.1,158.5,139.34z M153,147.36v50.23c1.01-1.88,2.93-5.45,5.5-10.06v-48.19
	C156.54,142.17,154.69,144.86,153,147.36z"/>
</svg>
